:SAMPLES-PER-SECOND 30
:FULLY-SPECIFIED
:DEGREES
65
root  1.99392 38.3423 3.71144 -22.8561 -78.4313 17.509
RightUpLeg  -8.80466 13.9916 -1.71026
RightLeg  35.3548 -7.73647 -6.11122
RightFoot  -16.0339 0.0929539 4.98645
RightToes  -1.16417e-010 0 -3.6325e-017
Spine  14.8324 -2.91406 -4.16917
Spine1  4.24653 -3.64831 -0.435338
HEad  -21.385 -2.9165 -5.16281
LeftShoulder1  1.02139 -2.18687 -10.6833
LeftArm  -18.7346 -24.9896 -33.2602
LeftForeArm  13.5861 -62.3256 -20.7628
LeftHand  0.663983 6.84156 43.0869
RightShoulder  1.9606 3.63173 21.1989
RightArm  2.95692 -33.9091 55.1942
RightForeArm  57.6958 76.043 41.8535
RightHand  -0.6208 -9.33172 14.1105
LeftUpLeg  -13.3246 -3.44093 0.230538
LeftLeg  38.5615 1.24575 1.40497
LeftFoot  -17.247 -0.556096 -12.6796
LeftToes  6.91183e-011 3.39355e-011 2.1261e-011
66
root  1.96523 38.1031 3.23401 -17.8825 -75.0074 11.7529
RightUpLeg  -9.67896 9.97342 -0.786124
RightLeg  38.9652 -8.0751 -7.214
RightFoot  -15.0903 0.0503811 4.35993
RightToes  -1.16417e-010 0 -3.6325e-017
Spine  14.9699 -2.47542 -6.75758
Spine1  5.92339 -4.12735 2.33686
HEad  -22.9392 -5.76961 -4.30076
LeftShoulder1  1.29518 -3.24561 -12.0776
LeftArm  -21.7481 -24.3885 -39.0606
LeftForeArm  21.1563 -64.7052 -22.4588
LeftHand  4.00591 11.9561 63.1097
RightShoulder  1.93872 3.46669 21.5609
RightArm  1.16894 -31.4222 52.1222
RightForeArm  110.493 80.8148 86.4977
RightHand  -1.74683 -12.3826 26.857
LeftUpLeg  -14.2937 -0.87346 -1.92401
LeftLeg  43.1458 -0.814642 -0.372504
LeftFoot  -17.3742 -0.642608 -14.1398
LeftToes  6.91183e-011 3.39355e-011 2.1261e-011
67
root  1.95113 38.0682 2.84613 -11.7058 -72.5271 5.8157
RightUpLeg  -12.3185 3.06844 -0.192179
RightLeg  42.2066 -5.15399 -5.24205
RightFoot  -12.1395 -0.0581351 2.64524
RightToes  -1.16417e-010 0 -3.6325e-017
Spine  14.9607 -2.20904 -8.20622
Spine1  5.59235 -4.45054 4.47106
HEad  -23.5238 -7.61002 -3.02627
LeftShoulder1  1.57193 -4.23991 -13.3138
LeftArm  -17.5004 -18.8448 -44.2152
LeftForeArm  26.5486 -67.0802 -24.8028
LeftHand  3.96255 11.8168 62.3182
RightShoulder  1.79876 3.16096 20.6796
RightArm  -0.259823 -26.7235 48.7448
RightForeArm  176.46 75.0385 144.972
RightHand  -2.00552 -11.8586 32.7434
LeftUpLeg  -14.1906 2.09332 -3.55394
LeftLeg  42.9665 -0.826492 -0.432466
LeftFoot  -14.543 -0.265483 -12.1151
LeftToes  6.91183e-011 3.39355e-011 2.1261e-011
68
root  2.00336 38.126 2.50815 -5.8085 -71.0438 0.231384
RightUpLeg  -15.6633 -5.22847 -0.445837
RightLeg  45.7604 2.60517 2.65532
RightFoot  -7.56189 -0.371337 7.82031
RightToes  -1.16417e-010 0 -3.6325e-017
Spine  16.049 -1.76798 -8.73926
Spine1  3.1217 -4.14046 4.86424
HEad  -23.5887 -9.06387 -0.541121
LeftShoulder1  1.78762 -4.92628 -14.3108
LeftArm  -9.80264 -9.99184 -48.014
LeftForeArm  29.7494 -67.9052 -25.5492
LeftHand  0.935753 7.76505 42.3664
RightShoulder  1.45678 2.29975 18.6243
RightArm  -4.69106 -19.4226 45.8989
RightForeArm  -165.01 63.9591 162.637
RightHand  -1.26979 -10.8949 23.3417
LeftUpLeg  -13.1006 2.77473 -3.69371
LeftLeg  39.5453 1.7692 1.94551
LeftFoot  -13.445 -0.022038 -6.47924
LeftToes  6.91183e-011 3.39355e-011 2.1261e-011
69
root  2.05596 38.0352 2.14224 -2.88007 -70.0964 -2.93558
RightUpLeg  -18.538 -12.1251 -2.90435
RightLeg  50.6202 10.183 12.6583
RightFoot  -2.74503 -1.66065 21.7014
RightToes  -1.16417e-010 0 -3.6325e-017
Spine  17.868 -0.637873 -10.242
Spine1  0.386222 -3.23708 4.74841
HEad  -23.7035 -10.8366 3.11578
LeftShoulder1  1.96645 -5.49569 -15.0185
LeftArm  -2.48274 -0.798539 -51.2402
LeftForeArm  32.1892 -66.3694 -23.0601
LeftHand  -0.303936 3.81165 17.4548
RightShoulder  0.940471 0.764314 15.2699
RightArm  -13.4307 -8.01096 42.7582
RightForeArm  -164.846 56.8571 166.839
RightHand  -0.191663 -10.7076 2.3269
LeftUpLeg  -12.087 0.791349 -2.82336
LeftLeg  37.3795 4.8336 4.37179
LeftFoot  -15.7947 -0.0225556 -2.84221
LeftToes  6.91183e-011 3.39355e-011 2.1261e-011
70
root  2.03923 37.9231 1.7221 -0.492645 -69.1507 -5.48346
RightUpLeg  -20.0339 -15.927 -6.86712
RightLeg  53.4861 11.7461 16.0687
RightFoot  -1.64837 -2.70779 31.3597
RightToes  -1.16417e-010 0 -3.6325e-017
Spine  18.8315 0.822265 -11.5592
Spine1  -1.29813 -1.91927 4.55921
HEad  -24.0434 -13.5034 7.04579
LeftShoulder1  2.15262 -6.14953 -15.5091
LeftArm  3.70851 7.15507 -54.4094
LeftForeArm  35.8637 -61.8814 -17.8205
LeftHand  0.0201486 2.32849 -0.207013
RightShoulder  0.441565 -1.02008 10.6364
RightArm  -27.4035 5.50484 37.3183
RightForeArm  -171.162 54.863 167.244
RightHand  0.57304 -9.10895 -19.2068
LeftUpLeg  -12.2065 -0.77938 -0.97161
LeftLeg  37.482 5.10062 4.58424
LeftFoot  -18.333 -0.112241 -3.62126
LeftToes  6.91183e-011 3.39355e-011 2.1261e-011
71
root  1.96911 38.0077 1.34083 4.957 -67.3945 -10.4883
RightUpLeg  -19.3323 -16.911 -10.5004
RightLeg  51.5516 7.47867 9.75314
RightFoot  -4.6777 -1.77417 28.6857
RightToes  -1.16417e-010 0 -3.6325e-017
Spine  18.8816 1.79202 -9.43582
Spine1  -2.56364 -0.187274 2.54451
HEad  -24.8612 -17.7117 10.7448
LeftShoulder1  2.37669 -6.9049 -16.0898
LeftArm  10.2945 14.4195 -56.0826
LeftForeArm  39.5464 -56.9294 -13.7429
LeftHand  0.0994665 1.36028 -3.27455
RightShoulder  0.0764195 -2.91159 5.17808
RightArm  -46.1319 14.6708 27.7264
RightForeArm  -179.186 56.9531 165.584
RightHand  -0.0855482 -4.99333 -34.5331
LeftUpLeg  -13.55 -0.0597722 2.23868
LeftLeg  37.8739 2.32697 2.34032
LeftFoot  -18.5812 -0.203152 -4.97511
LeftToes  6.91183e-011 3.39355e-011 2.1261e-011
